# xmcd
#
# Track frame offsets:
#	150
#	12307
#	26790
#	42105
#	56285
#	69957
#	84235
#	97227
#	110410
#	125292
#	139015
#	153330
#	168112
#	180410
#	193827
#	208527
#	223592
#	238962
#
# Disc length: 3416 seconds
#
# Revision: 2
# Processed by: cddbd v1.5.2PL0 Copyright (c) Steve Scherf et al.
# Submitted via: EasyCDDAExtractor 4.6.0.1
#
DISCID=f00d5612
DTITLE=Louis Armstrong - La vie en rose
DYEAR=1995
DGENRE=
TTITLE0=April in Portugal
TTITLE1=Because of you
TTITLE2=La vie en rose
TTITLE3=Cold, cold heart
TTITLE4=A kiss to build a dream on
TTITLE5=I´ll walk alone
TTITLE6=Blueberry hill
TTITLE7=I laughed at love
TTITLE8=The gypsy
TTITLE9=C´est si bon
TTITLE10=Maybe it´s because
TTITLE11=Unless
TTITLE12=Ramona
TTITLE13=Sittin´ in the sun
TTITLE14=When it´s sleepy time down south
TTITLE15=If
TTITLE16=I get ideas (adiós muchachos) 
TTITLE17=Basin street blues
EXTD=
EXTT0=
EXTT1=
EXTT2=
EXTT3=
EXTT4=
EXTT5=
EXTT6=
EXTT7=
EXTT8=
EXTT9=
EXTT10=
EXTT11=
EXTT12=
EXTT13=
EXTT14=
EXTT15=
EXTT16=
EXTT17=
PLAYORDER=
